<?xml version="1.0" encoding="UTF-8"?>
<!DOCTYPE svg PUBLIC "-//W3C//DTD SVG 1.1//EN" "http://www.w3.org/Graphics/SVG/1.1/DTD/svg11.dtd">
<svg xmlns="http://www.w3.org/2000/svg" version="1.1" width="534px" height="349px" style="shape-rendering:geometricPrecision; text-rendering:geometricPrecision; image-rendering:optimizeQuality; fill-rule:evenodd; clip-rule:evenodd" xmlns:xlink="http://www.w3.org/1999/xlink">
<g><path style="opacity:1" fill="#373739" d="M 335.5,73.5 C 376.21,72.4401 408.71,88.1068 433,120.5C 434.289,122.055 434.956,123.721 435,125.5C 425.667,134.167 416.333,142.833 407,151.5C 385.867,114.705 355.033,103.205 314.5,117C 301.9,123.261 291.4,132.094 283,143.5C 280.91,130.215 275.91,118.215 268,107.5C 267.333,106.167 267.333,104.833 268,103.5C 287.31,86.2605 309.81,76.2605 335.5,73.5 Z"/></g>
<g><path style="opacity:1" fill="#373739" d="M 103.5,74.5 C 130.835,74.3334 158.169,74.5 185.5,75C 213.191,77.7087 233.691,91.2087 247,115.5C 259.383,145.108 255.717,172.441 236,197.5C 224.623,209.273 210.789,216.44 194.5,219C 216.787,247.622 239.453,275.955 262.5,304C 247.492,305.726 232.492,305.893 217.5,304.5C 194.143,275.644 170.977,246.644 148,217.5C 145.281,216.556 142.448,216.223 139.5,216.5C 139.5,245.833 139.5,275.167 139.5,304.5C 127.523,305.366 115.523,305.699 103.5,305.5C 103.206,228.415 103.206,151.415 103.5,74.5 Z M 140.5,111.5 C 154.504,111.333 168.504,111.5 182.5,112C 204.353,114.523 216.02,126.857 217.5,149C 215.727,168.771 205.061,180.104 185.5,183C 170.17,183.5 154.837,183.667 139.5,183.5C 139.177,159.425 139.51,135.425 140.5,111.5 Z"/></g>
<g><path style="opacity:1" fill="#38383a" d="M 400.5,237.5 C 401.906,237.027 402.573,236.027 402.5,234.5C 406.877,226.705 409.877,218.371 411.5,209.5C 386.164,209.667 360.831,209.5 335.5,209C 334.346,197.243 334.179,185.409 335,173.5C 373.333,172.167 411.667,172.167 450,173.5C 455.394,221.722 438.894,260.222 400.5,289C 348.266,316.618 301.432,309.452 260,267.5C 252.165,257.171 245.331,246.171 239.5,234.5C 249.179,225.489 259.179,216.822 269.5,208.5C 284.649,254.57 315.983,273.07 363.5,264C 379.085,259.555 391.418,250.722 400.5,237.5 Z"/></g>
<g><path style="opacity:1" fill="#6d7276" d="M 402.5,234.5 C 402.573,236.027 401.906,237.027 400.5,237.5C 400.427,235.973 401.094,234.973 402.5,234.5 Z"/></g>
</svg>
